<svg width="23" height="22" viewBox="0 0 23 22" fill="none" xmlns="http://www.w3.org/2000/svg">
<path d="M22.529 11.2445C22.529 10.34 22.4524 9.68004 22.2866 8.99561H11.5054V13.0778H17.8337C17.7062 14.0923 17.0172 15.62 15.4861 16.6466L15.4647 16.7833L18.8735 19.313L19.1097 19.3356C21.2786 17.4167 22.529 14.5933 22.529 11.2445Z" fill="#4285F4"/>
<path d="M11.506 22C14.6063 22 17.2091 21.0221 19.1103 19.3355L15.4867 16.6466C14.5171 17.2944 13.2156 17.7466 11.506 17.7466C8.46938 17.7466 5.8921 15.8278 4.97338 13.1755L4.83871 13.1865L1.29416 15.8143L1.2478 15.9377C3.1361 19.531 7.01481 22 11.506 22Z" fill="#34A853"/>
<path d="M4.97335 13.1755C4.73093 12.4911 4.59064 11.7577 4.59064 10.9999C4.59064 10.2421 4.73093 9.50882 4.96059 8.82438L4.95417 8.67862L1.3652 6.00862L1.24777 6.06213C0.469515 7.55326 0.0229492 9.22773 0.0229492 10.9999C0.0229492 12.7722 0.469515 14.4466 1.24777 15.9377L4.97335 13.1755Z" fill="#FBBC05"/>
<path d="M11.506 4.2533C13.6622 4.2533 15.1167 5.14552 15.946 5.89113L19.1868 2.86C17.1965 1.08778 14.6063 0 11.506 0C7.01481 0 3.1361 2.46887 1.2478 6.06217L4.96062 8.82443C5.8921 6.17222 8.46938 4.2533 11.506 4.2533Z" fill="#EB4335"/>
</svg>
